<svg xmlns="http://www.w3.org/2000/svg" viewBox="0 0 440 100" role="img" aria-labelledby="title desc">
  <title id="title">Release-Harness inverse lockup</title>
  <desc id="desc">Release-Harness inverse Locking Caliper Clamp and wordmark.</desc>
  <g aria-hidden="true">
    <path fill="#94A3B8" d="M38 20 C22 20 16 34 16 50 C16 66 22 80 38 80 L38 68 C28 68 26 58 26 50 C26 42 28 32 38 32 Z"/>
    <path fill="#94A3B8" d="M62 20 C78 20 84 34 84 50 C84 66 78 80 62 80 L62 68 C72 68 74 58 74 50 C74 42 72 32 62 32 Z"/>
    <circle cx="50" cy="50" r="15" fill="#EAB308"/>
    <path d="M43 50 L48 55 L57 44" fill="none" stroke="#14171E" stroke-width="3.5" stroke-linecap="round" stroke-linejoin="round"/>
    <text x="116" y="61" fill="#FFFFFF" font-family="ui-monospace, 'Cascadia Code', 'SFMono-Regular', Consolas, 'Liberation Mono', monospace" font-size="34" font-weight="700" letter-spacing="-1">release.harness</text>
  </g>
</svg>
